# xmcd
#
# Track frame offsets:
#	150
#	16807
#	33739
#	51641
#	72588
#	92852
#	114091
#	131389
#	149257
#	167025
#	183698
#	201241
#	219430
#	239764
#	252162
#	267126
#	281995
#	298973
#
# Disc length: 4210 seconds
#
# Revision: 0
# Processed by: cddbd v1.4PL0 Copyright (c) Steve Scherf et al.
# Submitted via: EasyCDDAExtractor 4.6.9.1
#
DISCID=27107012
DTITLE=陳慧琳 - 情毒
DYEAR=1900
DGENRE=
TTITLE0=情毒
TTITLE1=太愛你
TTITLE2=不會改變的結果
TTITLE3=想得太美
TTITLE4=再見
TTITLE5=分開不好見
TTITLE6=紅眼睛
TTITLE7=再生花
TTITLE8=最近想起很多
TTITLE9=想再見你
TTITLE10=天脈傳奇
TTITLE11=無賴
TTITLE12=飛天舞會
TTITLE13=冰室
TTITLE14=夏天的緋聞
TTITLE15=戀愛神經
TTITLE16=好時光
TTITLE17=愛情來了
EXTD=
EXTT0=
EXTT1=
EXTT2=
EXTT3=
EXTT4=
EXTT5=
EXTT6=
EXTT7=
EXTT8=
EXTT9=
EXTT10=
EXTT11=
EXTT12=
EXTT13=
EXTT14=
EXTT15=
EXTT16=
EXTT17=
PLAYORDER=
